<svg style="position: absolute; width: 0; height: 0; overflow: hidden;" version="1.1" xmlns="http://www.w3.org/2000/svg" xmlns:xlink="http://www.w3.org/1999/xlink">
<defs>
<symbol id="git" viewBox="0 0 17 17">
<title>github</title>
<path d="M13.077 11.115c0 0.746-0.389 1.962-1.308 1.962-0.92 0-1.309-1.216-1.309-1.962 0-0.745 0.389-1.962 1.309-1.962 0.919 0 1.308 1.217 1.308 1.962zM5.231 9.153c-0.919 0-1.308 1.217-1.308 1.962 0 0.746 0.389 1.962 1.308 1.962 0.919 0 1.308-1.216 1.308-1.962 0-0.745-0.389-1.962-1.308-1.962zM17 9.317c0 1.135-0.112 2.34-0.623 3.382-1.349 2.728-5.057 2.993-7.713 2.993-2.697 0-6.63-0.234-8.030-2.993-0.522-1.032-0.634-2.247-0.634-3.382 0-1.492 0.409-2.901 1.39-4.045-0.184-0.562-0.276-1.155-0.276-1.738 0-0.766 0.173-1.531 0.521-2.227 1.614 0 2.646 0.705 3.872 1.665 1.032-0.245 2.094-0.357 3.157-0.357 0.96 0 1.931 0.103 2.861 0.327 1.216-0.95 2.247-1.635 3.841-1.635 0.348 0.695 0.521 1.461 0.521 2.227 0 0.583-0.092 1.165-0.276 1.717 0.981 1.154 1.389 2.574 1.389 4.066zM14.711 11.115c0-1.563-0.949-2.942-2.615-2.942-0.674 0-1.317 0.123-1.992 0.215-0.531 0.082-1.062 0.112-1.604 0.112s-1.073-0.030-1.604-0.112c-0.664-0.092-1.318-0.215-1.992-0.215-1.665 0-2.615 1.379-2.615 2.942 0 3.126 2.86 3.606 5.353 3.606h1.717c2.493 0.001 5.352-0.48 5.352-3.606z"/>
</symbol>
<symbol id="instagram" viewBox="0 0 17 17">
<title>instagram</title>
<path d="M13 0h-9c-2.2 0-4 1.8-4 4v9c0 2.2 1.8 4 4 4h9c2.2 0 4-1.8 4-4v-9c0-2.2-1.8-4-4-4zM16 13c0 1.654-1.346 3-3 3h-9c-1.654 0-3-1.346-3-3v-6h3.207c-0.286 0.61-0.457 1.283-0.457 2 0 2.619 2.131 4.75 4.75 4.75s4.75-2.131 4.75-4.75c0-0.717-0.171-1.39-0.457-2h3.207v6zM12.25 9c0 2.068-1.682 3.75-3.75 3.75s-3.75-1.682-3.75-3.75 1.682-3.75 3.75-3.75 3.75 1.682 3.75 3.75zM12.152 6c-0.872-1.059-2.176-1.75-3.652-1.75s-2.78 0.691-3.652 1.75h-3.848v-2c0-1.654 1.346-3 3-3h9c1.654 0 3 1.346 3 3v2h-3.848zM14.454 2.722v1.298c0 0.299-0.244 0.543-0.542 0.543h-1.368c-0.3-0.001-0.544-0.245-0.544-0.543v-1.298c0-0.299 0.244-0.543 0.544-0.543h1.368c0.298 0 0.542 0.244 0.542 0.543z"/>
</symbol>
<symbol id="twitter" viewBox="0 0 17 17">
<title>twitter</title>
<path d="M15.253 5.038c0.011 0.151 0.011 0.302 0.011 0.454 0 4.605-3.506 9.912-9.913 9.912-1.974 0-3.808-0.572-5.351-1.564 0.281 0.032 0.551 0.042 0.842 0.042 1.629 0 3.127-0.55 4.325-1.488-1.532-0.032-2.815-1.036-3.257-2.417 0.215 0.032 0.431 0.054 0.656 0.054 0.314 0 0.627-0.043 0.918-0.118-1.596-0.324-2.794-1.726-2.794-3.419 0-0.011 0-0.033 0-0.043 0.464 0.258 1.003 0.42 1.575 0.442-0.938-0.626-1.553-1.694-1.553-2.901 0-0.647 0.173-1.241 0.475-1.759 1.715 2.115 4.293 3.496 7.184 3.646-0.055-0.259-0.087-0.529-0.087-0.799 0-1.919 1.554-3.483 3.484-3.483 1.003 0 1.909 0.42 2.546 1.1 0.787-0.151 1.541-0.442 2.211-0.841-0.259 0.809-0.809 1.489-1.532 1.919 0.702-0.075 1.381-0.269 2.007-0.539-0.475 0.69-1.068 1.306-1.747 1.802z"/>
</symbol>
<symbol id="html" viewBox="0 0 17 17">
<title>html5</title>
<path d="M15.54 0.5l-1.28 14.379-5.78 1.621-5.74-1.621-1.28-14.379h14.080zM12.92 3.439h-8.84l0.47 5.34h6.121l-0.222 2.279-1.969 0.532-1.96-0.531-0.13-1.399h-1.749l0.22 2.779 3.62 1h0.039v-0.010l3.591-0.99 0.5-5.44h-6.441l-0.15-1.81h6.74l0.16-1.75z"/>
</symbol>
<symbol id="css" viewBox="0 0 17 17">
<title>css3</title>
<path d="M16.5 1.26l-2.407 12.064-7.277 2.416-6.316-2.416 0.643-3.223h2.688l-0.263 1.33 3.818 1.457 4.398-1.457 0.614-3.068h-10.929l0.524-2.686h10.94l0.345-1.73h-10.931l0.533-2.687h13.62z"/>
</symbol>
<symbol id="mouse" viewBox="0 0 17 17">
<title>mouse</title>
<path d="M8.5 0c-3.033 0-5.5 2.467-5.5 5.5v6c0 3.033 2.467 5.5 5.5 5.5s5.5-2.467 5.5-5.5v-6c0-3.033-2.467-5.5-5.5-5.5zM13 11.5c0 2.481-2.019 4.5-4.5 4.5s-4.5-2.019-4.5-4.5v-6c0-2.481 2.019-4.5 4.5-4.5s4.5 2.019 4.5 4.5v6zM8.5 3.5c-0.827 0-1.5 0.673-1.5 1.5v2c0 0.827 0.673 1.5 1.5 1.5s1.5-0.673 1.5-1.5v-2c0-0.827-0.673-1.5-1.5-1.5zM9 7c0 0.276-0.224 0.5-0.5 0.5s-0.5-0.224-0.5-0.5v-2c0-0.276 0.224-0.5 0.5-0.5s0.5 0.224 0.5 0.5v2z"/>
</symbol>
<symbol id="email" viewBox="0 0 17 17">
<title>email</title>
<path d="M0 2v13h17v-13h-17zM8.494 9.817l-6.896-6.817h13.82l-6.924 6.817zM5.755 8.516l-4.755 4.682v-9.383l4.755 4.701zM6.466 9.219l2.026 2.003 1.996-1.966 4.8 4.744h-13.677l4.855-4.781zM11.201 8.555l4.799-4.725v9.467l-4.799-4.742z"/>
</symbol>
<symbol id="linkedin" viewBox="0 0 17 17">
<title>linkedin</title>
<path d="M500,10C229.8,10,10,229.8,10,500c0,270.2,219.8,490,490,490c270.2,0,490-219.8,490-490C990,229.8,770.2,10,500,10z M759.8,721.6c0,20.8-17.3,37.7-38.7,37.7H275.5c-21.3,0-38.6-16.9-38.6-37.7V270.8c0-20.8,17.3-37.7,38.6-37.7h445.7c21.4,0,38.7,16.9,38.7,37.7C759.8,270.8,759.8,721.6,759.8,721.6z"/><path d="M356.4,321.4c-27,0-44.7,17.7-44.7,41.1c0,22.8,17.2,41.1,43.6,41.1h0.5c27.6,0,44.7-18.3,44.7-41.1C400,339.1,383.5,321.4,356.4,321.4z"/>
</symbol>
</defs>
</svg>